<?xml version="1.0" encoding="UTF-8"?>
<svg id="Layer_1" data-name="Layer 1" xmlns="http://www.w3.org/2000/svg" viewBox="0 0 5925.89 1000">
  <defs>
    <style>
      .cls-1 {
        fill: #ffcb05;
      }

      .cls-1, .cls-2 {
        stroke-width: 0px;
      }

      .cls-2 {
        fill: #020202;
      }
    </style>
  </defs>
  <g>
    <polygon class="cls-1" points="3426.94 674.54 4101.48 0 3858.19 0 3427.04 431.15 3426.94 674.54"/>
    <polygon class="cls-1" points="4101.48 674.54 3855.25 674.54 3641.1 460.39 3890.46 460.39 4101.48 674.54"/>
  </g>
  <g>
    <path class="cls-2" d="M3816.89,778.57v153.52h71.9v23.35h-94.26l.21-176.86h22.15Z"/>
    <path class="cls-2" d="M4029,888.93v4.24c0,18.63-7.31,64.38-57.89,64.38-34.9,0-57.89-26.89-57.89-64.15v-4.48c.63-37.02,23.62-63.2,58.1-63.2s57.27,29.47,57.68,63.2ZM3971.32,844.6c-25.91,0-33.65,26.42-34.07,44.34v4.48c0,26.42,13.59,44.57,33.86,44.57s33.86-16.04,33.86-44.81v-4.48c-.21-24.29-13.17-44.1-33.65-44.1Z"/>
    <path class="cls-2" d="M4165.47,945.3c0,32.07-19.65,54.7-55.8,54.7s-54.55-20.75-55.59-42.44h20.9c1.67,14.38,16.3,24.99,35.11,24.99,14.63,0,33.02-8.49,33.02-37.26v-20.05c-6.06,12.5-20.06,24.05-39.71,24.05-22.36,0-49.32-19.57-49.32-58.72v-5.89c.42-35.14,21.94-58.95,51.83-58.95,20.48,0,35.74,16.27,38.87,29.24v-26.89h20.69v117.21ZM4144.78,884.45c-.42-22.88-14.63-40.09-33.86-40.09-20.27,0-35.32,16.03-35.95,40.09l-.21,6.13c0,23.58,14.42,40.8,34.28,40.8s35.74-13.91,35.74-40.8v-6.13Z"/>
    <path class="cls-2" d="M4215.82,779.52c7.73,0,13.59,6.84,13.59,15.32s-5.85,15.33-13.59,15.33-13.38-7.07-13.38-15.33,5.85-15.32,13.38-15.32ZM4227.31,828.09v127.34h-22.78v-127.34h22.78Z"/>
    <path class="cls-2" d="M4306.93,957.79c-28.01,0-46.82-13.91-48.7-39.15h22.15c1.25,13.68,12.33,22.41,26.96,22.41,13.59,0,24.04-8.02,24.04-19.34s-7.73-16.27-28.01-19.81c-28.01-4.48-42.84-13.44-42.84-37.49s20.69-38.67,45.14-38.67,42.84,11.55,46.19,36.08h-22.36c-2.09-11.79-11.08-17.68-23.61-17.68s-22.57,7.07-22.57,18.4,8.36,16.74,27.8,20.04c28.22,4.48,43.68,12.03,43.68,36.79s-20.48,38.43-47.86,38.43Z"/>
    <path class="cls-2" d="M4412.47,845.31v73.81c0,11.79,5.01,17.45,14.21,17.45h16.93v18.87h-22.36c-19.65,0-30.72-10.14-30.72-34.19v-75.94h-14v-17.22h14v-27.36h21.94v27.36h30.51v17.22h-30.51Z"/>
    <path class="cls-2" d="M4487.28,779.52c7.73,0,13.59,6.84,13.59,15.32s-5.85,15.33-13.59,15.33-13.38-7.07-13.38-15.33,5.85-15.32,13.38-15.32ZM4498.78,828.09v127.34h-22.78v-127.34h22.78Z"/>
    <path class="cls-2" d="M4530.54,893.18v-6.37c0-25.7,17.35-61.07,57.89-61.07,26.12,0,48.07,17.68,51.21,43.86h-21.74c-2.09-14.62-14.63-24.76-28.84-24.76-25.7,0-34.28,26.18-34.69,43.16v6.6c0,26.42,14.63,45.51,33.65,45.51,17.97,0,30.72-11.79,30.72-31.6h21.73c-.83,31.13-21.94,49.28-53.92,49.28-38.04,0-56.01-35.61-56.01-64.61Z"/>
    <path class="cls-2" d="M4710.89,957.79c-28.01,0-46.82-13.91-48.7-39.15h22.15c1.25,13.68,12.33,22.41,26.96,22.41,13.58,0,24.03-8.02,24.03-19.34s-7.73-16.27-28.01-19.81c-28.01-4.48-42.84-13.44-42.84-37.49s20.69-38.67,45.14-38.67,42.84,11.55,46.19,36.08h-22.36c-2.09-11.79-11.08-17.68-23.61-17.68s-22.57,7.07-22.57,18.4,8.36,16.74,27.8,20.04c28.22,4.48,43.68,12.03,43.68,36.79s-20.48,38.43-47.86,38.43Z"/>
    <path class="cls-2" d="M4904.82,957.79c-21.94,0-37.41-15.09-41.8-29.47v27.12h-21.73v-174.98h22.99v74.05c5.23-12.97,19.02-29.24,41.59-28.77,28.63.24,49.95,24.99,49.95,64.38v4.48c0,40.09-24.45,63.2-51,63.2ZM4898.34,937.99c19.23,0,34.07-17.45,34.07-43.86v-4.48c0-29.24-16.09-43.16-34.9-43.16-22.78,0-33.86,23.35-33.86,43.16v4.48c0,29,17.56,43.86,34.69,43.86Z"/>
    <path class="cls-2" d="M5086.42,828.09l-61.03,169.32h-22.15l16.51-48.11-45.14-121.21h22.99l33.65,97.4,33.86-97.4h21.32Z"/>
    <path class="cls-2" d="M5162.9,869.6v-6.37c.42-51.41,32.81-87.25,77.33-87.25s76.7,35.61,77.33,86.31v6.84c0,52.59-31.35,88.67-76.91,88.67s-77.75-35.84-77.75-88.19ZM5295.4,869.12v-6.84c-.42-36.32-23.62-63.2-55.18-63.2s-54.76,26.88-54.97,63.2v7.31c0,38.2,22.36,64.61,55.18,64.61s54.97-27.36,54.97-65.09Z"/>
    <path class="cls-2" d="M5374.17,775.74v179.69h-22.36v-179.69h22.36Z"/>
    <path class="cls-2" d="M5435.61,775.74v179.69h-22.36v-179.69h22.36Z"/>
    <path class="cls-2" d="M5546.37,955.43l-39.29-50.93-9.19,12.97v37.97h-22.99v-179.69h22.99v110.36l47.86-58.01h23.83l-48.49,60.61,51.41,66.74h-26.12Z"/>
    <path class="cls-2" d="M5707.5,888.93v4.24c0,18.63-7.31,64.38-57.89,64.38-34.9,0-57.89-26.89-57.89-64.15v-4.48c.63-37.02,23.62-63.2,58.1-63.2s57.27,29.47,57.68,63.2ZM5649.82,844.6c-25.91,0-33.65,26.42-34.07,44.34v4.48c0,26.42,13.59,44.57,33.86,44.57s33.86-16.04,33.86-44.81v-4.48c-.21-24.29-13.17-44.1-33.65-44.1Z"/>
    <path class="cls-2" d="M5925.89,872.19v83.24h-23.2v-77.35c0-21.93-9.2-32.78-25.92-32.78-21.11,0-31.77,15.57-31.98,32.78v77.35h-23.2v-77.35c0-21.93-9.62-32.78-26.54-32.78-19.44,0-31.98,15.57-31.98,34.19v75.94h-23.2v-127.34h22.36v21.93c9.19-19.57,26.33-24.29,40.75-24.29,20.06,0,33.44,8.25,38.45,27.36,7.94-22.64,28.84-27.36,42.43-27.36,25.29,0,42.01,15.09,42.01,46.45Z"/>
  </g>
  <g>
    <polygon class="cls-2" points="2203.93 8.53 2203.93 10 2203.28 9.35 1958.41 254.21 1713.55 9.35 1713.49 9.41 1713.49 8.25 1556.66 8.25 1555.91 8.53 1555.74 665.93 1713.32 665.93 1713.44 196.11 1920.9 403.57 1920.95 403.52 1958.46 441.04 2203.88 195.61 2203.76 665.93 2361.34 665.93 2361.51 8.25 2204.68 8.25 2203.93 8.53"/>
    <path class="cls-2" d="M2858.19,6.06h-167.33l-234.5,660.08h167.33l47.2-132.87h373.4l47.2,132.87h167.33L3024.33,6.06h-166.14ZM2718.1,400.41L2857.6,7.73l139.5,392.68h-279Z"/>
    <path class="cls-2" d="M401.83,6.06h-167.33L0,666.14h167.33l47.2-132.87h373.4l47.2,132.87h167.33L567.97,6.06h-166.14ZM261.73,400.41L401.23,7.73l139.5,392.68h-279Z"/>
    <path class="cls-2" d="M4642.34,7.23h-167.33l-234.5,660.08h167.33l47.2-132.87h373.4l47.2,132.87h167.33L4808.48,7.23h-166.14ZM4502.25,401.58l139.5-392.68,139.5,392.68h-279Z"/>
    <polygon class="cls-2" points="5769.06 9.85 5768.31 10.13 5768.19 480.39 5297.77 9.98 5297.77 9.85 5297.64 9.85 5297.58 9.78 5297.52 9.85 5140.95 9.85 5140.19 10.13 5140.03 667.52 5297.61 667.52 5297.73 196.8 5768.14 667.21 5768.14 667.52 5925.72 667.52 5925.89 9.85 5769.06 9.85"/>
    <polygon class="cls-2" points="1259.91 5.67 1068.71 262.65 885.72 5.67 703.67 5.67 690.1 5.67 988.14 395.87 988.14 667.22 1148.88 667.22 1148.88 395.98 1458.48 6.06 1443.93 5.67 1259.91 5.67"/>
  </g>
</svg>